/* XPM */
static char *_86144022edd48bdc485477fb4e1b9c5mZkhbCFmn7CZTxNT[] = {
/* columns rows colors chars-per-pixel */
"24 24 185 2 ",
"   c None",
".  c #974726",
"X  c #974727",
"o  c #9D4A33",
"O  c #A24A28",
"+  c #AE502A",
"@  c #AE502B",
"#  c #AF502B",
"$  c #AE512B",
"%  c #AE522C",
"&  c #AF522C",
"*  c #AE522D",
"=  c #B0532E",
"-  c #B1532E",
";  c #B1532F",
":  c #B6562F",
">  c #B7562F",
",  c #A45336",
"<  c #A75236",
"1  c #AA5332",
"2  c #AE5B37",
"3  c #A45A39",
"4  c #A95A3F",
"5  c #A85E3E",
"6  c #B15630",
"7  c #B65B34",
"8  c #B75B34",
"9  c #B65B35",
"0  c #BB5E36",
"q  c #BA5E37",
"w  c #BB5E37",
"e  c #BB5F37",
"r  c #B8563C",
"t  c #B8573C",
"y  c #B8573D",
"u  c #BB5A38",
"i  c #BC5F3C",
"p  c #BF6333",
"a  c #BB623B",
"s  c #BB633B",
"d  c #C45C32",
"f  c #C45C33",
"g  c #C55C33",
"h  c #C45D33",
"j  c #CE6B36",
"k  c #CE6A37",
"l  c #CE6B37",
"z  c #C7603C",
"x  c #C7613C",
"c  c #CB643A",
"v  c #CF6438",
"b  c #C8603C",
"n  c #C8613C",
"m  c #C9613C",
"M  c #C8613D",
"N  c #D06438",
"B  c #D06538",
"V  c #D16538",
"C  c #D96B3E",
"Z  c #DA6C3E",
"A  c #DB6C3E",
"S  c #DA6D3E",
"D  c #DA6C3F",
"F  c #A45A41",
"G  c #B25D41",
"H  c #A86347",
"J  c #B86345",
"K  c #B46C49",
"L  c #B96C4D",
"P  c #A36555",
"I  c #BF6750",
"U  c #B46F52",
"Y  c #B46F53",
"T  c #B26F5D",
"R  c #AC7158",
"E  c #B8765D",
"W  c #BE7A58",
"Q  c #BE7663",
"!  c #BE7763",
"~  c #BF7664",
"^  c #BE7764",
"/  c #BF7764",
"(  c #BF7765",
")  c #C06040",
"_  c #C16040",
"`  c #C06140",
"'  c #C16140",
"]  c #C16141",
"[  c #C46040",
"{  c #C46041",
"}  c #C26547",
"|  c #C96441",
" . c #CA6640",
".. c #CA6641",
"X. c #CB6641",
"o. c #CA6741",
"O. c #C16A42",
"+. c #C06A43",
"@. c #C16A43",
"#. c #C16B43",
"$. c #C86A46",
"%. c #C96A46",
"&. c #C0694A",
"*. c #C16A4A",
"=. c #C06A4B",
"-. c #C16A4B",
";. c #C16B4B",
":. c #C6694A",
">. c #C76A4A",
",. c #C56E48",
"<. c #C56E49",
"1. c #D06D4B",
"2. c #D06D4C",
"3. c #D16D4C",
"4. c #D16D4D",
"5. c #C1734E",
"6. c #C2744F",
"7. c #C3744F",
"8. c #C2754F",
"9. c #CF724A",
"0. c #CB734E",
"q. c #CC744E",
"w. c #CC744F",
"e. c #CD744F",
"r. c #CC754F",
"t. c #D37043",
"y. c #D27648",
"u. c #D37648",
"i. c #D37748",
"p. c #D37649",
"a. c #D7764A",
"s. c #D7764B",
"d. c #DE7B4F",
"f. c #C57252",
"g. c #C57352",
"h. c #C67452",
"j. c #C67453",
"k. c #C77453",
"l. c #C5795A",
"z. c #CE7859",
"x. c #CF785A",
"c. c #CE795A",
"v. c #CF795A",
"b. c #CF795B",
"n. c #DF7A50",
"m. c #DF7B50",
"M. c #DF7B51",
"N. c #DF785D",
"B. c #DF795D",
"V. c #E27848",
"C. c #E27948",
"Z. c #E0785E",
"A. c #E0795E",
"S. c #E1795E",
"D. c #E0795F",
"F. c #C57E63",
"G. c #C57F63",
"H. c #C67F64",
"J. c #C67F65",
"K. c #CC7F63",
"L. c #CD825E",
"P. c #CE825F",
"I. c #CE835F",
"U. c #DA805B",
"Y. c #DB805B",
"T. c #DE825C",
"R. c #DF835C",
"E. c #DF825D",
"W. c #DE835D",
"Q. c #DF835D",
"!. c #C78163",
"~. c #C88264",
"^. c #C88265",
"/. c #CA8568",
"(. c #CA8469",
"). c #D28160",
"_. c #D38260",
"`. c #D28261",
"'. c #D38261",
"]. c #D38361",
"[. c #DA876A",
"{. c #DB896A",
"}. c #DB886B",
"|. c #DA896B",
" X c #DB896B",
/* pixels */
"  v.v.                                    v.v.  ",
"v.v.v.v.                                v.v.v.v.",
"[ [ j.j.                                { [ f.j.",
"@ H.H.s.@ @ l.].* * E.E.-.;.6.7.(.R j.a @ ~.H.s.",
"^ ^ f f ^ P -.r.q.S S p.s.y y ^ ~ B.a ..~ F.g g ",
"w %.%.c w u T ^ { [ %.%.M o.S S `.U 1.* t $.$.M ",
"3.4.F.F.1.G [ `.`.g h ~.~.I.I.6.j.j c C 1.1.F.F.",
"~.g { V.!.^ K 6.J [ s s V V Q.Q.+.3 %.J.(.g g V.",
";.;.@ * -.F V (./.C.d.p.y.H.H.f d j K.[.-.-.; ; ",
"@ }.|.- @ M J >.s.s.a a R.R.+ * >.4 u.>.= }.}.; ",
"M n r r x 1 E.3.3.p.s.7 7 r.q.C t.- O @ g | G r ",
"S.d.m.S N.s.K 6.].].p.y.+ * r r z < y.t D.C.C.t.",
"S.N.6 - N.I |.`.I.#.#.|.}.j.j.`.`.r E G.S.S.= = ",
"v.>.>.U.v.%.> d S.S.|.|.C.M.= 1 V 6 p.!.x.>.>.Y.",
"- - O.O.= X %.C.C.3.1.m.d.U.B.! ^ R.W I.- - +.+.",
"v N.S.v V I.L k.w w @ @ ].].I.I.`.U * R.V S.S.k ",
"j.j.3.3.f.H x * * 3.3.z M C t.I.b.Q.y.n.f.f.3.3.",
" X~.~.5.[.* 6 f Y.Y.>.>.}.}.q.q.u o = a [.~.~.>.",
"D.N.Q.Q.Z.=.x.H.H.3.4.Q.R.H.H.* = 6 9 a N.S.Q.Q.",
"r.S.S.v.0.a t.V.r.z.C.C.m.m.9 9 +.3 ^ K.r.S.S.v.",
"k.k.N N f.H 3.}.|.d d ,.>.z z u y $.E F.j.j.V v ",
"o.o.M S | +.p k V V ~.I.o...* * >.5 v g.o.....S ",
"] [ M n J , B.% @ w e r.r.;.;.|.|.x y z J [ M M ",
"^ o.M :.F.V.} 2.9 8 j.j.+.+.s s - . h z.F...o.>."
};
